<svg xmlns:svg="http://www.w3.org/2000/svg" xmlns="http://www.w3.org/2000/svg" version="1.0" width="320" height="320">
                        
                        <g id="full-svg-transform" transform="translate(5 5) scale(1.6236667235438513) translate(-3.523991584777832 -2.360999822616577)">
                            <g id="full-svg-wrapper"><path d="M165.547,37.629c-6.274-3.547-16.295,2.158-22.381,12.744l-11.018,19.167  c-4.026,7.968-3.475,17.456,1.632,24.78l0.322,0.461c5.105,7.324,11.951,14.095,14.219,16.51c1.33,1.42,2.348,3.172,2.91,5.177  c1.859,6.654-2.025,13.558-8.678,15.419c-6.655,1.861-13.56-2.023-15.421-8.678c-0.468-1.67-0.571-3.356-0.361-4.974  c0.357-2.75-0.524-7.228-4.468-11.624c-3.941-4.396-11.998,3.907-14.604,12.447l-0.121,0.392  c-2.605,8.539-4.248,15.991-3.758,16.708c0.294,0.427,0.565,0.875,0.815,1.344c3.654,6.878,1.043,15.417-5.835,19.071  c-6.878,3.656-15.416,1.044-19.072-5.833c-3.656-6.878-1.044-15.417,5.834-19.072c0.309-0.165,0.621-0.315,0.936-0.455  c0.526-0.231,2.016-3.821,3.309-8.061c1.295-4.241,2.344-7.678,2.344-7.678c0.137-0.451,0.258-0.897,0.366-1.339l6.96-24.852  l-7.443,15.28c-0.883-2.901-2.342-3.005-5.537-0.719c-1.926,1.379-5.111,4.093-6.668,5.206c-2.922,2.091-5.367,6.153-6.66,8.641  c-0.762,1.464-1.829,2.8-3.191,3.905c-5.33,4.324-13.156,3.509-17.481-1.82c-4.323-5.329-3.508-13.154,1.82-17.479  c1.562-1.268,3.34-2.094,5.18-2.494c3.131-0.68,13.779-7.185,20.195-11.776c1.148-0.821,2.112-1.599,2.896-2.319l17.13-13.01  l-14.919,8.062c0,0-1.518-0.154-3.379,0.053c-5.461,0.606-11.084,1.376-12.146,2.728c-0.628,0.798-1.376,1.523-2.242,2.146  c-4.978,3.586-11.924,2.458-15.51-2.522c-3.588-4.98-2.458-11.925,2.521-15.511c2.055-1.479,4.441-2.156,6.789-2.091  c3.993,0.11,14.502,2.241,23.291,0.684l2.258-0.4c8.791-1.558,19.316-9.211,23.512-17.093c0,0,4.105-7.213,9.17-16.11  c5.066-8.898,4.691-18.645-0.834-21.769L108.221,5.22c-5.049-2.854-13.312-2.859-18.365-0.011L20.932,44.065  c-5.053,2.849-9.186,9.925-9.186,15.725v75.93c0,5.801,4.133,12.876,9.186,15.725l68.924,38.855  c5.053,2.85,13.316,2.844,18.365-0.011l68.688-38.833c5.051-2.854,9.182-9.936,9.182-15.736v-75.93c0-5.8-4.131-12.881-9.182-15.735  C176.908,44.054,171.82,41.177,165.547,37.629z" onmouseup="sendClickToParentDocument(evt)" style=""></path></g>
                            <rect id="highlight-rect" fill="none" stroke="#f00" stroke-width="2"></rect>
                        </g>
                    </svg>
